<svg width="48" height="48" viewBox="0 0 48 48" fill="none" xmlns="http://www.w3.org/2000/svg">
<rect width="48" height="48" rx="12" fill="#1E40AF"/>
<path d="M10.1641 36.8945C9.29395 36.8945 8.54907 36.5847 7.92944 35.9651C7.30981 35.3455 7 34.6006 7 33.7305C7 32.8604 7.30981 32.1155 7.92944 31.4958C8.54907 30.8762 9.29395 30.5664 10.1641 30.5664C10.3223 30.5664 10.4607 30.5664 10.5793 30.5664C10.698 30.5664 10.8232 30.5928 10.9551 30.6455L18.1533 23.4473C18.1006 23.3154 18.0742 23.1902 18.0742 23.0715C18.0742 22.9529 18.0742 22.8145 18.0742 22.6562C18.0742 21.7861 18.384 21.0413 19.0037 20.4216C19.6233 19.802 20.3682 19.4922 21.2383 19.4922C22.1084 19.4922 22.8533 19.802 23.4729 20.4216C24.0925 21.0413 24.4023 21.7861 24.4023 22.6562C24.4023 22.709 24.376 22.9727 24.3232 23.4473L28.3574 27.4814C28.4893 27.4287 28.6145 27.4023 28.7332 27.4023C28.8518 27.4023 28.9902 27.4023 29.1484 27.4023C29.3066 27.4023 29.4451 27.4023 29.5637 27.4023C29.6824 27.4023 29.8076 27.4287 29.9395 27.4814L35.5557 21.8652C35.5029 21.7334 35.4766 21.6082 35.4766 21.4895C35.4766 21.3708 35.4766 21.2324 35.4766 21.0742C35.4766 20.2041 35.7864 19.4592 36.406 18.8396C37.0256 18.22 37.7705 17.9102 38.6406 17.9102C39.5107 17.9102 40.2556 18.22 40.8752 18.8396C41.4949 19.4592 41.8047 20.2041 41.8047 21.0742C41.8047 21.9443 41.4949 22.6892 40.8752 23.3088C40.2556 23.9285 39.5107 24.2383 38.6406 24.2383C38.4824 24.2383 38.344 24.2383 38.2253 24.2383C38.1067 24.2383 37.9814 24.2119 37.8496 24.1592L32.2334 29.7754C32.2861 29.9072 32.3125 30.0325 32.3125 30.1511C32.3125 30.2698 32.3125 30.4082 32.3125 30.5664C32.3125 31.4365 32.0027 32.1814 31.3831 32.801C30.7634 33.4207 30.0186 33.7305 29.1484 33.7305C28.2783 33.7305 27.5334 33.4207 26.9138 32.801C26.2942 32.1814 25.9844 31.4365 25.9844 30.5664C25.9844 30.4082 25.9844 30.2698 25.9844 30.1511C25.9844 30.0325 26.0107 29.9072 26.0635 29.7754L22.0293 25.7412C21.8975 25.7939 21.7722 25.8203 21.6536 25.8203C21.5349 25.8203 21.3965 25.8203 21.2383 25.8203C21.1855 25.8203 20.9219 25.7939 20.4473 25.7412L13.249 32.9395C13.3018 33.0713 13.3281 33.1965 13.3281 33.3152C13.3281 33.4338 13.3281 33.5723 13.3281 33.7305C13.3281 34.6006 13.0183 35.3455 12.3987 35.9651C11.7791 36.5847 11.0342 36.8945 10.1641 36.8945ZM11.7461 21.0347L10.7573 18.8989L8.62158 17.9102L10.7573 16.9214L11.7461 14.7856L12.7349 16.9214L14.8706 17.9102L12.7349 18.8989L11.7461 21.0347ZM29.1484 19.4922L27.6455 16.249L24.4023 14.7461L27.6455 13.2432L29.1484 10L30.6514 13.2432L33.8945 14.7461L30.6514 16.249L29.1484 19.4922Z" fill="#F5E8FC"/>
</svg>
